<svg width="231" height="157" viewBox="0 0 231 157" xmlns="http://www.w3.org/2000/svg"><title>Logo Qualified No BG</title><g fill="none" fill-rule="evenodd"><g transform="translate(196.125)" fill="#6ABE79"><ellipse cx="16.938" cy="16.938" rx="16.938" ry="16.938"/><ellipse opacity=".8" cx="16.938" cy="81.124" rx="16.938" ry="16.938"/><ellipse opacity=".4" cx="16.938" cy="139.962" rx="16.938" ry="16.938"/></g><path d="M167.49 156.9H79.314c-10.805 0-21.035-1.945-30.688-5.835-9.653-3.89-18.082-9.293-25.286-16.209-7.203-6.916-12.894-15.164-17.073-24.745C2.09 100.53 0 90.048 0 78.666 0 67.428 2.017 57.02 6.051 47.437c4.034-9.58 9.617-17.901 16.75-24.961 7.131-7.06 15.487-12.57 25.069-16.533C57.45 1.981 67.86 0 79.098 0c10.806 0 20.927 1.945 30.365 5.835 9.437 3.89 17.685 9.257 24.745 16.1 7.06 6.844 12.643 14.913 16.749 24.206 4.106 9.293 6.16 19.414 6.16 30.364 0 6.483-.757 12.859-2.27 19.126-1.513 6.268-3.746 12.139-6.7 17.614a61.339 61.339 0 0 1-11.022 14.695 52.824 52.824 0 0 1-15.02 10.374v.432h45.385V156.9zm-89.04-19.45c8.357 0 16.029-1.55 23.016-4.647 6.988-3.098 12.967-7.348 17.938-12.75 4.97-5.404 8.825-11.779 11.562-19.127 2.738-7.348 4.106-15.2 4.106-23.557 0-8.068-1.404-15.632-4.214-22.692-2.81-7.06-6.736-13.183-11.778-18.37-5.043-5.186-11.022-9.293-17.938-12.318-6.916-3.026-14.48-4.539-22.692-4.539-8.068 0-15.524 1.513-22.368 4.539-6.844 3.025-12.787 7.132-17.83 12.318-5.042 5.187-9.004 11.274-11.886 18.262-2.881 6.988-4.322 14.444-4.322 22.368 0 8.357 1.369 16.209 4.106 23.557 2.737 7.348 6.592 13.76 11.562 19.234 4.97 5.475 10.914 9.797 17.83 12.967 6.915 3.17 14.551 4.755 22.908 4.755z" fill="#000"/></g></svg>